<svg version="1.1" id="Layer_1" xmlns="http://www.w3.org/2000/svg" xmlns:xlink="http://www.w3.org/1999/xlink" x="0px" y="0px"
	 width="100%" viewBox="180 180 664 664" enable-background="new 0 0 1024 1024" xml:space="preserve">
<path fill="#FBFCFB" opacity="1.000000" stroke="none" 
	d="
M650.000000,1025.000000 
	C433.333344,1025.000000 217.166672,1025.000000 1.000000,1025.000000 
	C1.000000,683.666687 1.000000,342.333344 1.000000,1.000000 
	C342.333344,1.000000 683.666687,1.000000 1025.000000,1.000000 
	C1025.000000,342.333344 1025.000000,683.666687 1025.000000,1025.000000 
	C900.166687,1025.000000 775.333313,1025.000000 650.000000,1025.000000 
M184.840881,607.500000 
	C184.872559,645.828918 184.828781,684.158142 185.007889,722.486328 
	C185.038895,729.121704 185.486252,735.845703 186.635452,742.371216 
	C196.969635,801.053162 245.021301,841.223572 304.604065,841.230042 
	C444.420135,841.245117 584.236206,841.269226 724.052307,841.255859 
	C728.378296,841.255432 732.744202,841.189331 737.024231,840.634521 
	C796.938110,832.868286 840.755371,783.834106 840.875000,723.339966 
	C841.152405,583.024536 841.184326,442.707825 840.927856,302.392303 
	C840.807861,236.749634 788.972656,185.327728 723.236816,184.719223 
	C707.740112,184.575775 692.240906,184.708405 676.742859,184.707352 
	C553.258057,184.698990 429.773315,184.715485 306.288544,184.656342 
	C282.729218,184.645050 260.620544,190.146378 240.777756,202.815353 
	C204.118149,226.221344 185.239456,260.168823 185.052704,303.538208 
	C184.617828,404.523926 184.866760,505.512543 184.840881,607.500000 
z"/>
<path fill="#085639" opacity="1.000000" stroke="none" 
	d="
M184.839767,607.000000 
	C184.866760,505.512543 184.617828,404.523926 185.052704,303.538208 
	C185.239456,260.168823 204.118149,226.221344 240.777756,202.815353 
	C260.620544,190.146378 282.729218,184.645050 306.288544,184.656342 
	C429.773315,184.715485 553.258057,184.698990 676.742859,184.707352 
	C692.240906,184.708405 707.740112,184.575775 723.236816,184.719223 
	C788.972656,185.327728 840.807861,236.749634 840.927856,302.392303 
	C841.184326,442.707825 841.152405,583.024536 840.875000,723.339966 
	C840.755371,783.834106 796.938110,832.868286 737.024231,840.634521 
	C732.744202,841.189331 728.378296,841.255432 724.052307,841.255859 
	C584.236206,841.269226 444.420135,841.245117 304.604065,841.230042 
	C245.021301,841.223572 196.969635,801.053162 186.635452,742.371216 
	C185.486252,735.845703 185.038895,729.121704 185.007889,722.486328 
	C184.828781,684.158142 184.872559,645.828918 184.839767,607.000000 
M703.803711,411.765289 
	C709.474670,413.802399 713.916138,417.412415 716.169739,422.990082 
	C722.637695,438.999084 733.130310,452.307861 743.983093,465.410553 
	C745.566589,467.322357 747.048950,469.317963 748.578064,471.274780 
	C747.229492,443.709900 742.622925,417.326172 729.103271,393.216827 
	C716.413452,370.587341 697.885803,355.104858 673.277466,346.737488 
	C655.416870,340.664459 637.079163,339.916290 618.501648,340.880859 
	C572.151855,343.287415 537.441711,369.300018 522.148315,413.086914 
	C514.383484,435.318787 511.297729,458.394989 510.211761,481.740479 
	C509.595001,494.998871 510.100342,508.309418 510.100342,521.846313 
	C509.884674,521.744873 510.160309,521.939941 510.464417,522.008057 
	C521.772888,524.542358 533.072510,527.119629 544.412048,529.507202 
	C545.590332,529.755371 547.108704,529.068909 548.296936,528.472656 
	C553.633972,525.794617 558.652161,522.161743 564.265564,520.427917 
	C572.904663,517.759583 581.936707,516.363586 591.569092,514.260315 
	C591.569092,513.486511 591.523193,511.695648 591.576294,509.907745 
	C592.031372,494.591919 592.079102,479.248138 593.103271,463.969971 
	C593.960999,451.174561 596.068604,438.469757 602.018066,426.814423 
	C607.461670,416.150208 615.589050,409.046783 628.088562,408.777069 
	C633.371887,408.663116 638.411072,408.861816 642.621033,403.966644 
	C647.092407,403.825989 647.797729,402.065094 645.001587,398.144257 
	C645.646729,397.379456 646.291809,396.614655 647.349915,396.423889 
	C648.362183,396.311310 649.590698,396.527161 650.348389,396.028107 
	C653.291626,394.089478 653.982422,395.567749 653.924866,398.876038 
	C648.036255,407.469116 642.147644,416.062195 636.066223,424.936584 
	C638.368408,426.570282 639.989868,427.720886 641.708618,428.940521 
	C645.580322,419.924774 654.011353,408.795776 658.651245,407.055847 
	C654.896179,413.055389 651.372437,418.439178 648.101624,423.972473 
	C643.854797,431.156799 644.000732,431.406769 651.671814,435.178711 
	C652.030762,435.355194 652.504150,435.298798 652.956360,435.354889 
	C652.554199,429.359680 659.474487,418.535492 666.211182,415.789124 
	C663.089294,420.636017 660.481140,424.600677 657.972473,428.627319 
	C657.118652,429.997711 655.557007,432.403992 655.953552,432.835907 
	C658.457153,435.562744 661.092041,438.748566 664.360474,439.967407 
	C666.199158,440.653046 669.334351,437.862091 671.885437,436.637360 
	C671.697571,436.068176 671.509705,435.498993 671.321838,434.929810 
	C669.388550,434.402008 667.455261,433.874207 665.521912,433.346436 
	C665.136780,432.814362 664.751587,432.282318 664.366455,431.750244 
	C666.157227,430.552185 667.950806,429.358337 669.737366,428.153870 
	C670.388000,427.715240 671.021667,427.251465 671.755127,426.734253 
	C673.229675,433.522980 676.087769,436.392975 682.285278,438.080475 
	C687.510559,439.503265 692.122314,438.044312 696.933777,435.934113 
	C696.933777,435.934113 697.237366,436.236023 697.101624,436.907257 
	C696.082336,438.153870 695.063049,439.400452 694.846008,439.665863 
	C701.532288,450.632416 707.943665,461.148102 713.872803,472.109985 
	C713.713379,472.260071 713.553955,472.410187 712.916016,472.098572 
	C707.141235,465.456421 701.366455,458.814270 695.591736,452.172119 
	C695.233093,452.507904 694.874512,452.843719 694.515930,453.179504 
	C696.862000,458.179260 699.249084,463.160248 701.545410,468.182770 
	C705.922241,477.755890 707.882019,487.500702 706.047241,498.223083 
	C702.859375,516.853516 707.830261,532.734314 723.911621,544.092590 
	C723.911621,544.092590 723.790955,544.215454 723.010864,544.456909 
	C713.433105,541.907959 704.343079,538.798279 697.462952,530.795044 
	C694.323914,527.143677 689.842102,524.245911 685.423706,522.164612 
	C666.522644,513.261169 644.933899,519.187500 631.079468,536.558167 
	C628.202087,540.165833 625.101257,543.595276 621.859497,546.854675 
	C621.859497,546.854675 621.614197,546.603882 621.623108,545.841492 
	C622.698425,542.375122 623.773682,538.908752 624.955688,535.098511 
	C623.618103,534.276184 622.265076,533.358521 620.836731,532.578979 
	C599.082764,520.706604 567.018860,524.368652 547.747192,541.119751 
	C538.267700,549.359497 530.004211,558.689270 523.954468,569.822144 
	C523.464844,570.723267 522.595642,571.418152 521.902832,572.208923 
	C521.299683,571.799988 520.696533,571.391052 520.093384,570.982117 
	C525.815613,560.294373 531.537781,549.606628 537.432007,538.597656 
	C529.083557,535.258484 519.691223,532.767395 509.362671,533.108459 
	C509.984436,541.729675 510.385651,549.717468 511.167084,557.667908 
	C513.408936,580.476929 517.582031,602.814514 527.846130,623.611267 
	C538.805542,645.816895 555.327637,662.526917 578.487793,674.792542 
	C581.450745,668.743958 584.286926,662.954285 587.288940,656.825989 
	C600.345276,657.134766 615.333008,631.577515 615.396179,610.494263 
	C610.064270,611.273926 604.845459,611.988525 599.643799,612.811462 
	C594.515259,613.622986 591.968994,616.304321 590.959961,621.821045 
	C588.367737,635.993286 581.323792,647.901855 569.948181,656.928406 
	C569.806946,656.773132 569.665710,656.617859 569.765198,655.820557 
	C575.582642,645.816711 579.443054,635.218384 579.954468,622.836731 
	C568.610596,629.223083 557.594177,634.847656 544.765869,637.327209 
	C554.028259,630.292358 562.968262,623.994080 571.351868,617.026489 
	C586.113770,604.757751 596.576599,588.886230 607.051392,573.061890 
	C610.269043,568.200989 613.837158,563.572021 617.244751,558.836853 
	C617.638000,559.073669 618.031250,559.310486 618.424561,559.547302 
	C614.645874,570.963684 611.401672,582.593872 604.626892,593.236877 
	C604.689575,593.357788 604.752258,593.478699 604.814941,593.599609 
	C604.903870,593.420898 604.992798,593.242126 605.081787,593.063354 
	C604.861633,592.963074 604.641479,592.862793 605.112549,593.382507 
	C613.539734,591.562378 621.966919,589.742249 630.394104,587.922180 
	C630.521545,588.436890 630.649048,588.951660 630.776489,589.466431 
	C624.792419,592.393066 618.808350,595.319641 612.115967,598.592651 
	C625.798035,602.019104 638.466431,605.510437 651.285889,608.309448 
	C663.318604,610.936707 675.420959,610.744812 687.317932,606.985840 
	C700.003052,602.977844 710.620422,595.699951 720.048035,585.920532 
	C712.254700,585.920532 704.461365,585.920532 696.668030,585.920532 
	C697.111023,584.697693 697.632385,584.372192 698.199036,584.237427 
	C714.850891,580.278625 731.412781,575.857788 748.195190,572.560364 
	C759.962219,570.248413 767.556396,562.724121 774.593689,554.265930 
	C776.110107,552.443237 776.379028,548.652527 775.730774,546.155701 
	C774.445862,541.205872 771.638733,536.655945 770.307373,531.712708 
	C763.535706,506.569061 749.477173,485.553070 733.954346,465.159851 
	C726.125305,454.874451 719.068970,443.901459 712.665527,432.668091 
	C708.861084,425.994110 705.224976,419.766968 698.978088,416.152039 
	C700.368225,414.554321 701.758301,412.956635 703.803711,411.765289 
M452.045410,531.546021 
	C453.734039,529.482300 455.454620,527.443726 457.106445,525.350891 
	C479.663483,496.772003 493.354187,465.198578 489.046112,427.902069 
	C484.668274,390.001587 465.018768,363.303375 429.325195,349.159210 
	C406.309113,340.038727 382.196655,339.222137 357.940491,341.648987 
	C338.233704,343.620605 319.823090,349.751404 303.890900,361.873993 
	C280.027130,380.031647 268.743958,405.138245 265.024017,434.166687 
	C264.191162,440.665771 264.031952,447.251129 263.543518,454.063293 
	C290.644318,456.129730 316.801514,458.124237 343.097870,460.129364 
	C343.428802,455.028107 343.159790,450.583069 344.105835,446.413696 
	C345.965698,438.217010 347.383698,429.628052 351.014252,422.192505 
	C356.688141,410.572113 367.679535,407.665131 379.861755,408.929871 
	C391.179840,410.104950 398.287689,416.746124 402.146149,427.103485 
	C405.568329,436.289948 405.398773,445.725800 403.430420,455.175659 
	C399.740082,472.892731 390.148285,487.443909 378.078552,500.361847 
	C342.359802,538.590637 306.531799,576.720337 270.377747,614.536194 
	C264.902557,620.263000 262.341125,625.702759 262.626740,633.662720 
	C263.229065,650.448242 262.809967,667.270447 262.809967,684.293274 
	C338.766144,684.293274 414.316986,684.293274 489.895386,684.293274 
	C489.895386,660.704773 489.895386,637.446411 489.895386,613.704590 
	C451.878662,613.704590 414.152466,613.704590 375.048340,613.704590 
	C401.155426,585.871155 426.376160,558.982727 452.045410,531.546021 
M760.331848,719.087585 
	C755.465027,718.512939 750.598145,717.938232 745.521851,717.338806 
	C745.324402,720.288269 745.210938,721.983704 745.074646,724.020203 
	C733.418091,710.883057 715.463989,715.335327 710.171875,729.845520 
	C706.403320,740.178406 706.208130,750.779358 711.019653,760.944885 
	C716.208801,771.908020 729.107971,775.742310 739.299683,769.581909 
	C740.866089,768.635071 742.267334,767.415161 744.747803,765.579285 
	C744.118591,770.351135 744.218689,774.134399 743.043213,777.467896 
	C741.165222,782.793884 735.353516,784.095215 728.519226,781.433411 
	C723.963440,779.659119 719.367737,777.987244 714.667969,776.223694 
	C713.577698,779.243164 712.969788,781.500305 711.967529,783.566040 
	C710.513123,786.563477 711.112854,788.738892 714.204529,789.880371 
	C719.143677,791.704102 724.048828,794.246094 729.163330,794.860046 
	C750.608826,797.434265 760.363159,788.475891 760.395386,766.942810 
	C760.418762,751.294250 760.432678,735.645752 760.331848,719.087585 
M656.538269,440.889923 
	C652.821960,439.497131 649.163391,437.897461 645.354919,436.834991 
	C644.181580,436.507660 642.599243,437.646698 641.204163,438.114319 
	C641.737366,439.367828 642.069397,441.559509 642.836182,441.723969 
	C648.189392,442.872284 653.632507,443.600952 659.046875,444.464020 
	C659.245972,443.938416 659.445129,443.412781 659.644226,442.887146 
	C658.835999,442.326508 658.027771,441.765900 656.538269,440.889923 
z"/>
<path fill="#FBFCFC" opacity="1.000000" stroke="none" 
	d="
M451.821136,531.820190 
	C426.376160,558.982727 401.155426,585.871155 375.048340,613.704590 
	C414.152466,613.704590 451.878662,613.704590 489.895386,613.704590 
	C489.895386,637.446411 489.895386,660.704773 489.895386,684.293274 
	C414.316986,684.293274 338.766144,684.293274 262.809967,684.293274 
	C262.809967,667.270447 263.229065,650.448242 262.626740,633.662720 
	C262.341125,625.702759 264.902557,620.263000 270.377747,614.536194 
	C306.531799,576.720337 342.359802,538.590637 378.078552,500.361847 
	C390.148285,487.443909 399.740082,472.892731 403.430420,455.175659 
	C405.398773,445.725800 405.568329,436.289948 402.146149,427.103485 
	C398.287689,416.746124 391.179840,410.104950 379.861755,408.929871 
	C367.679535,407.665131 356.688141,410.572113 351.014252,422.192505 
	C347.383698,429.628052 345.965698,438.217010 344.105835,446.413696 
	C343.159790,450.583069 343.428802,455.028107 343.097870,460.129364 
	C316.801514,458.124237 290.644318,456.129730 263.543518,454.063293 
	C264.031952,447.251129 264.191162,440.665771 265.024017,434.166687 
	C268.743958,405.138245 280.027130,380.031647 303.890900,361.873993 
	C319.823090,349.751404 338.233704,343.620605 357.940491,341.648987 
	C382.196655,339.222137 406.309113,340.038727 429.325195,349.159210 
	C465.018768,363.303375 484.668274,390.001587 489.046112,427.902069 
	C493.354187,465.198578 479.663483,496.772003 457.106445,525.350891 
	C455.454620,527.443726 453.734039,529.482300 451.821136,531.820190 
z"/>
<path fill="#F9FAFA" opacity="1.000000" stroke="none" 
	d="
M622.103455,547.106873 
	C625.101257,543.595276 628.202087,540.165833 631.079468,536.558167 
	C644.933899,519.187500 666.522644,513.261169 685.423706,522.164612 
	C689.842102,524.245911 694.323914,527.143677 697.462952,530.795044 
	C704.343079,538.798279 713.433105,541.907959 723.529907,544.579346 
	C724.496338,544.659302 724.943787,544.616882 725.391235,544.574463 
	C724.937622,544.372253 724.484009,544.170044 724.030457,543.967834 
	C707.830261,532.734314 702.859375,516.853516 706.047241,498.223083 
	C707.882019,487.500702 705.922241,477.755890 701.545410,468.182770 
	C699.249084,463.160248 696.862000,458.179260 694.515930,453.179504 
	C694.874512,452.843719 695.233093,452.507904 695.591736,452.172119 
	C701.366455,458.814270 707.141235,465.456421 713.304504,472.622375 
	C713.922607,473.701355 714.152222,474.256531 714.381836,474.811707 
	C714.615051,474.741058 714.848206,474.670410 715.081421,474.599731 
	C714.839294,473.621094 714.597168,472.642456 714.355042,471.663818 
	C707.943665,461.148102 701.532288,450.632416 694.846008,439.665863 
	C695.063049,439.400452 696.082336,438.153870 697.421509,436.432159 
	C697.720032,435.686127 697.698730,435.415222 697.677368,435.144318 
	C697.328369,435.306976 696.979309,435.469604 696.630188,435.632233 
	C692.122314,438.044312 687.510559,439.503265 682.285278,438.080475 
	C676.087769,436.392975 673.229675,433.522980 671.755127,426.734253 
	C671.021667,427.251465 670.388000,427.715240 669.737366,428.153870 
	C667.950806,429.358337 666.157227,430.552185 664.366455,431.750244 
	C664.751587,432.282318 665.136780,432.814362 665.521912,433.346436 
	C667.455261,433.874207 669.388550,434.402008 671.321838,434.929810 
	C671.509705,435.498993 671.697571,436.068176 671.885437,436.637360 
	C669.334351,437.862091 666.199158,440.653046 664.360474,439.967407 
	C661.092041,438.748566 658.457153,435.562744 655.953552,432.835907 
	C655.557007,432.403992 657.118652,429.997711 657.972473,428.627319 
	C660.481140,424.600677 663.089294,420.636017 666.211182,415.789124 
	C659.474487,418.535492 652.554199,429.359680 652.956360,435.354889 
	C652.504150,435.298798 652.030762,435.355194 651.671814,435.178711 
	C644.000732,431.406769 643.854797,431.156799 648.101624,423.972473 
	C651.372437,418.439178 654.896179,413.055389 658.651245,407.055847 
	C654.011353,408.795776 645.580322,419.924774 641.708618,428.940521 
	C639.989868,427.720886 638.368408,426.570282 636.066223,424.936584 
	C642.147644,416.062195 648.036255,407.469116 654.323364,398.375763 
	C656.360962,398.069519 658.179932,397.868134 659.610840,398.519409 
	C672.474243,404.373901 685.269470,410.378174 698.084717,416.338440 
	C705.224976,419.766968 708.861084,425.994110 712.665527,432.668091 
	C719.068970,443.901459 726.125305,454.874451 733.954346,465.159851 
	C749.477173,485.553070 763.535706,506.569061 770.307373,531.712708 
	C771.638733,536.655945 774.445862,541.205872 775.730774,546.155701 
	C776.379028,548.652527 776.110107,552.443237 774.593689,554.265930 
	C767.556396,562.724121 759.962219,570.248413 748.195190,572.560364 
	C731.412781,575.857788 714.850891,580.278625 698.199036,584.237427 
	C697.632385,584.372192 697.111023,584.697693 696.668030,585.920532 
	C704.461365,585.920532 712.254700,585.920532 720.048035,585.920532 
	C710.620422,595.699951 700.003052,602.977844 687.317932,606.985840 
	C675.420959,610.744812 663.318604,610.936707 651.285889,608.309448 
	C638.466431,605.510437 625.798035,602.019104 612.115967,598.592651 
	C618.808350,595.319641 624.792419,592.393066 630.776489,589.466431 
	C630.649048,588.951660 630.521545,588.436890 630.394104,587.922180 
	C621.966919,589.742249 613.539734,591.562378 604.791687,593.080933 
	C604.470825,592.779358 604.522278,592.770325 604.522278,592.770325 
	C611.401672,582.593872 614.645874,570.963684 618.424561,559.547302 
	C618.031250,559.310486 617.638000,559.073669 617.244751,558.836853 
	C613.837158,563.572021 610.269043,568.200989 607.051392,573.061890 
	C596.576599,588.886230 586.113770,604.757751 571.351868,617.026489 
	C562.968262,623.994080 554.028259,630.292358 544.765869,637.327209 
	C557.594177,634.847656 568.610596,629.223083 579.954468,622.836731 
	C579.443054,635.218384 575.582642,645.816711 569.372375,656.290771 
	C568.756592,657.086121 568.533630,657.411255 568.310608,657.736328 
	C568.997742,657.622192 569.684875,657.508057 570.372009,657.393982 
	C581.323792,647.901855 588.367737,635.993286 590.959961,621.821045 
	C591.968994,616.304321 594.515259,613.622986 599.643799,612.811462 
	C604.845459,611.988525 610.064270,611.273926 615.396179,610.494263 
	C615.333008,631.577515 600.345276,657.134766 587.288940,656.825989 
	C584.286926,662.954285 581.450745,668.743958 578.487793,674.792542 
	C555.327637,662.526917 538.805542,645.816895 527.846130,623.611267 
	C517.582031,602.814514 513.408936,580.476929 511.167084,557.667908 
	C510.385651,549.717468 509.984436,541.729675 509.362671,533.108459 
	C519.691223,532.767395 529.083557,535.258484 537.432007,538.597656 
	C531.537781,549.606628 525.815613,560.294373 520.093384,570.982117 
	C520.696533,571.391052 521.299683,571.799988 521.902832,572.208923 
	C522.595642,571.418152 523.464844,570.723267 523.954468,569.822144 
	C530.004211,558.689270 538.267700,549.359497 547.747192,541.119751 
	C567.018860,524.368652 599.082764,520.706604 620.836731,532.578979 
	C622.265076,533.358521 623.618103,534.276184 624.955688,535.098511 
	C623.773682,538.908752 622.698425,542.375122 621.420898,546.433044 
	C621.271729,547.303162 621.324829,547.581665 621.377991,547.860229 
	C621.619812,547.609131 621.861633,547.357971 622.103455,547.106873 
M688.188232,563.687256 
	C691.010803,559.776978 693.833374,555.866699 696.656006,551.956482 
	C696.300903,551.529236 695.945801,551.102051 695.590698,550.674866 
	C677.016052,568.056396 656.298401,572.276917 632.322083,560.535400 
	C637.130249,567.787415 642.768921,572.018188 649.919617,573.896484 
	C664.241028,577.658203 676.848511,574.234680 688.188232,563.687256 
M758.253479,513.250061 
	C750.362366,499.912140 743.864075,492.084778 741.890320,491.739410 
	C747.071838,503.954193 752.872009,516.965332 758.096375,530.203674 
	C761.000854,537.563477 759.395264,544.599792 754.244141,550.745605 
	C752.748596,552.529846 751.462158,554.489441 749.768982,556.791321 
	C761.064758,554.855042 768.317078,546.463745 766.419250,536.250977 
	C764.991821,528.569946 761.337463,521.302673 758.253479,513.250061 
M717.934998,499.335449 
	C717.965820,505.446014 717.373108,511.639160 718.168640,517.648499 
	C719.473267,527.502197 725.998962,535.174622 734.009277,537.476501 
	C725.983337,526.125488 721.890198,513.426575 719.110229,500.204041 
	C718.992737,499.644867 718.431335,499.178986 717.934998,499.335449 
M669.900757,582.736206 
	C660.562073,587.491089 650.558105,589.469482 639.098572,588.888245 
	C649.706299,598.462830 667.855713,593.358032 673.350342,580.936279 
	C672.145142,581.526367 671.311951,581.934326 669.900757,582.736206 
z"/>
<path fill="#FBFCFB" opacity="1.000000" stroke="none" 
	d="
M641.843140,403.935181 
	C638.411072,408.861816 633.371887,408.663116 628.088562,408.777069 
	C615.589050,409.046783 607.461670,416.150208 602.018066,426.814423 
	C596.068604,438.469757 593.960999,451.174561 593.103271,463.969971 
	C592.079102,479.248138 592.031372,494.591919 591.576294,509.907745 
	C591.523193,511.695648 591.569092,513.486511 591.569092,514.260315 
	C581.936707,516.363586 572.904663,517.759583 564.265564,520.427917 
	C558.652161,522.161743 553.633972,525.794617 548.296936,528.472656 
	C547.108704,529.068909 545.590332,529.755371 544.412048,529.507202 
	C533.072510,527.119629 521.772888,524.542358 510.464417,522.008057 
	C510.160309,521.939941 509.884674,521.744873 510.100342,521.846313 
	C510.100342,508.309418 509.595001,494.998871 510.211761,481.740479 
	C511.297729,458.394989 514.383484,435.318787 522.148315,413.086914 
	C537.441711,369.300018 572.151855,343.287415 618.501648,340.880859 
	C637.079163,339.916290 655.416870,340.664459 673.277466,346.737488 
	C697.885803,355.104858 716.413452,370.587341 729.103271,393.216827 
	C742.622925,417.326172 747.229492,443.709900 748.578064,471.274780 
	C747.048950,469.317963 745.566589,467.322357 743.983093,465.410553 
	C733.130310,452.307861 722.637695,438.999084 716.169739,422.990082 
	C713.916138,417.412415 709.474670,413.802399 703.229980,411.354736 
	C688.908081,404.429779 675.175537,397.882233 661.405884,391.413635 
	C653.467957,387.684631 651.885193,388.220245 646.936951,395.849854 
	C646.291809,396.614655 645.646729,397.379456 644.634644,398.615845 
	C643.459534,400.703369 642.651367,402.319275 641.843140,403.935181 
z"/>
<path fill="#F9FBF9" opacity="1.000000" stroke="none" 
	d="
M760.391357,719.542358 
	C760.432678,735.645752 760.418762,751.294250 760.395386,766.942810 
	C760.363159,788.475891 750.608826,797.434265 729.163330,794.860046 
	C724.048828,794.246094 719.143677,791.704102 714.204529,789.880371 
	C711.112854,788.738892 710.513123,786.563477 711.967529,783.566040 
	C712.969788,781.500305 713.577698,779.243164 714.667969,776.223694 
	C719.367737,777.987244 723.963440,779.659119 728.519226,781.433411 
	C735.353516,784.095215 741.165222,782.793884 743.043213,777.467896 
	C744.218689,774.134399 744.118591,770.351135 744.747803,765.579285 
	C742.267334,767.415161 740.866089,768.635071 739.299683,769.581909 
	C729.107971,775.742310 716.208801,771.908020 711.019653,760.944885 
	C706.208130,750.779358 706.403320,740.178406 710.171875,729.845520 
	C715.463989,715.335327 733.418091,710.883057 745.074646,724.020203 
	C745.210938,721.983704 745.324402,720.288269 745.521851,717.338806 
	C750.598145,717.938232 755.465027,718.512939 760.391357,719.542358 
M745.101318,741.857605 
	C744.873535,740.557129 744.777466,739.216431 744.395264,737.963074 
	C742.716187,732.457703 738.774292,729.607361 733.358643,729.871826 
	C728.530273,730.107666 724.822693,733.123474 724.200745,738.695923 
	C723.698425,743.196594 723.860596,747.991394 724.886108,752.385437 
	C726.091187,757.548828 730.577454,760.068420 735.394531,759.586609 
	C740.155823,759.110413 744.309326,755.157410 744.939697,750.198425 
	C745.251404,747.745605 745.112183,745.235474 745.101318,741.857605 
z"/>
<path fill="#135D45" opacity="1.000000" stroke="none" 
	d="
M647.143433,396.136871 
	C651.885193,388.220245 653.467957,387.684631 661.405884,391.413635 
	C675.175537,397.882233 688.908081,404.429779 702.902344,411.151550 
	C701.758301,412.956635 700.368225,414.554321 698.531372,416.245239 
	C685.269470,410.378174 672.474243,404.373901 659.610840,398.519409 
	C658.179932,397.868134 656.360962,398.069519 654.409119,398.051147 
	C653.982422,395.567749 653.291626,394.089478 650.348389,396.028107 
	C649.590698,396.527161 648.362183,396.311310 647.143433,396.136871 
z"/>
<path fill="#E3EAE7" opacity="1.000000" stroke="none" 
	d="
M656.878906,441.047607 
	C658.027771,441.765900 658.835999,442.326508 659.644226,442.887146 
	C659.445129,443.412781 659.245972,443.938416 659.046875,444.464020 
	C653.632507,443.600952 648.189392,442.872284 642.836182,441.723969 
	C642.069397,441.559509 641.737366,439.367828 641.204163,438.114319 
	C642.599243,437.646698 644.181580,436.507660 645.354919,436.834991 
	C649.163391,437.897461 652.821960,439.497131 656.878906,441.047607 
z"/>
<path fill="#135D45" opacity="1.000000" stroke="none" 
	d="
M642.232117,403.950928 
	C642.651367,402.319275 643.459534,400.703369 644.568481,398.914185 
	C647.797729,402.065094 647.092407,403.825989 642.232117,403.950928 
z"/>
<path fill="#F9FAFA" opacity="1.000000" stroke="none" 
	d="
M604.446045,592.770874 
	C604.641479,592.862793 604.861633,592.963074 605.081787,593.063354 
	C604.992798,593.242126 604.903870,593.420898 604.814941,593.599609 
	C604.752258,593.478699 604.689575,593.357788 604.574585,593.003601 
	C604.522278,592.770325 604.470825,592.779358 604.446045,592.770874 
z"/>
<path fill="#105C43" opacity="1.000000" stroke="none" 
	d="
M687.939941,563.941406 
	C676.848511,574.234680 664.241028,577.658203 649.919617,573.896484 
	C642.768921,572.018188 637.130249,567.787415 632.322083,560.535400 
	C656.298401,572.276917 677.016052,568.056396 695.590698,550.674866 
	C695.945801,551.102051 696.300903,551.529236 696.656006,551.956482 
	C693.833374,555.866699 691.010803,559.776978 687.939941,563.941406 
z"/>
<path fill="#145B44" opacity="1.000000" stroke="none" 
	d="
M758.463989,513.550659 
	C761.337463,521.302673 764.991821,528.569946 766.419250,536.250977 
	C768.317078,546.463745 761.064758,554.855042 749.768982,556.791321 
	C751.462158,554.489441 752.748596,552.529846 754.244141,550.745605 
	C759.395264,544.599792 761.000854,537.563477 758.096375,530.203674 
	C752.872009,516.965332 747.071838,503.954193 741.890320,491.739410 
	C743.864075,492.084778 750.362366,499.912140 758.463989,513.550659 
z"/>
<path fill="#185D45" opacity="1.000000" stroke="none" 
	d="
M718.005859,499.002563 
	C718.431335,499.178986 718.992737,499.644867 719.110229,500.204041 
	C721.890198,513.426575 725.983337,526.125488 734.009277,537.476501 
	C725.998962,535.174622 719.473267,527.502197 718.168640,517.648499 
	C717.373108,511.639160 717.965820,505.446014 718.005859,499.002563 
z"/>
<path fill="#165C44" opacity="1.000000" stroke="none" 
	d="
M670.189758,582.539246 
	C671.311951,581.934326 672.145142,581.526367 673.350342,580.936279 
	C667.855713,593.358032 649.706299,598.462830 639.098572,588.888245 
	C650.558105,589.469482 660.562073,587.491089 670.189758,582.539246 
z"/>
<path fill="#085639" opacity="1.000000" stroke="none" 
	d="
M714.113892,471.886902 
	C714.597168,472.642456 714.839294,473.621094 715.081421,474.599731 
	C714.848206,474.670410 714.615051,474.741058 714.381836,474.811707 
	C714.152222,474.256531 713.922607,473.701355 713.543701,472.853271 
	C713.553955,472.410187 713.713379,472.260071 714.113892,471.886902 
z"/>
<path fill="#085639" opacity="1.000000" stroke="none" 
	d="
M723.971069,544.030212 
	C724.484009,544.170044 724.937622,544.372253 725.391235,544.574463 
	C724.943787,544.616882 724.496338,544.659302 723.919922,544.458618 
	C723.790955,544.215454 723.911621,544.092590 723.971069,544.030212 
z"/>
<path fill="#085639" opacity="1.000000" stroke="none" 
	d="
M570.160095,657.161194 
	C569.684875,657.508057 568.997742,657.622192 568.310608,657.736328 
	C568.533630,657.411255 568.756592,657.086121 569.252075,656.611816 
	C569.665710,656.617859 569.806946,656.773132 570.160095,657.161194 
z"/>
<path fill="#085639" opacity="1.000000" stroke="none" 
	d="
M621.981445,546.980774 
	C621.861633,547.357971 621.619812,547.609131 621.377991,547.860229 
	C621.324829,547.581665 621.271729,547.303162 621.416382,546.814209 
	C621.614197,546.603882 621.859497,546.854675 621.981445,546.980774 
z"/>
<path fill="#085639" opacity="1.000000" stroke="none" 
	d="
M696.781982,435.783203 
	C696.979309,435.469604 697.328369,435.306976 697.677368,435.144318 
	C697.698730,435.415222 697.720032,435.686127 697.489380,436.096558 
	C697.237366,436.236023 696.933777,435.934113 696.781982,435.783203 
z"/>
<path fill="#06563A" opacity="1.000000" stroke="none" 
	d="
M745.139160,742.304443 
	C745.112183,745.235474 745.251404,747.745605 744.939697,750.198425 
	C744.309326,755.157410 740.155823,759.110413 735.394531,759.586609 
	C730.577454,760.068420 726.091187,757.548828 724.886108,752.385437 
	C723.860596,747.991394 723.698425,743.196594 724.200745,738.695923 
	C724.822693,733.123474 728.530273,730.107666 733.358643,729.871826 
	C738.774292,729.607361 742.716187,732.457703 744.395264,737.963074 
	C744.777466,739.216431 744.873535,740.557129 745.139160,742.304443 
z"/>
</svg>